<svg width="60" height="61" viewBox="0 0 60 61" fill="none" xmlns="http://www.w3.org/2000/svg">
<path d="M30 0.383789C46.5731 0.383789 60 13.8107 60 30.3838C60 46.9569 46.5731 60.3838 30 60.3838C13.4269 60.3838 0 46.9569 0 30.3838C0 13.8107 13.4269 0.383789 30 0.383789ZM24.0319 40.3738C24.4725 41.9957 24.4237 43.4994 23.9738 44.8569L23.8162 45.3069C23.7581 45.4625 23.6812 45.6088 23.6213 45.7475C23.2706 46.4807 22.8019 47.1519 22.2356 47.7782C20.4862 49.6738 18.0562 50.3957 17.01 49.79C15.8775 49.1357 16.4419 46.4507 18.465 44.3094C20.6419 42.0144 23.7675 40.5388 23.7675 40.5388V40.5313L24.0319 40.3738ZM48.8175 13.2257C47.46 7.89316 38.6231 6.14566 30.2625 9.11379C25.2825 10.8819 19.9031 13.6569 16.0256 17.2794C11.415 21.5844 10.6838 25.3344 10.9875 26.8963C12.06 32.4238 19.6294 36.0482 22.7456 38.7238V38.7444C21.825 39.1925 15.1087 42.5619 13.5356 46.0588C11.8462 49.7282 13.8 52.3569 15.0675 52.6888C19.005 53.7819 23.0569 51.7888 25.2356 48.5657C27.3356 45.4138 27.1481 41.3713 26.2406 39.3782C27.48 39.0463 28.9462 38.8888 30.8212 39.1138C36.0769 39.7194 37.1213 43.0213 36.8962 44.3694C36.6712 45.7175 35.5856 46.5069 35.2069 46.7319C34.8375 46.9569 34.7194 47.0244 34.7569 47.1819C34.7962 47.4069 34.9819 47.4069 35.2838 47.3675C35.6944 47.3 38.0194 46.2444 38.1356 43.6944C38.2425 40.4619 35.1656 36.8694 29.6981 36.9369C27.4425 36.9875 26.0156 37.1713 25.0106 37.5819C24.9338 37.475 24.8531 37.3963 24.7463 37.3175C21.3694 33.6857 15.1088 31.1375 15.3713 26.2925C15.4519 24.5357 16.0856 19.8875 27.3731 14.2625C36.63 9.64254 44.0231 10.9232 45.2925 13.7357C47.13 17.7482 41.3569 25.2107 31.7194 26.2925C28.0462 26.7032 26.1319 25.2875 25.6444 24.7607C25.1175 24.1925 25.05 24.155 24.8512 24.2732C24.5588 24.4175 24.7444 24.9088 24.8512 25.2107C25.1531 25.9607 26.3156 27.2713 28.3481 27.9425C30.105 28.5107 34.4231 28.8425 39.5981 26.8194C45.4087 24.575 49.9406 18.3144 48.63 13.0588L48.8175 13.2257Z" fill="#121311"/>
</svg>
