<svg width="60" height="60" viewBox="0 0 60 60" fill="none" xmlns="http://www.w3.org/2000/svg">
<path d="M0 0H60V60H0V0ZM55.0875 45.6938C54.6488 42.9488 52.86 40.6538 47.5781 38.5069C45.7425 37.6481 43.6912 37.0425 43.0856 35.655C42.8606 34.8338 42.8213 34.3856 42.9675 33.8962C43.3481 32.2744 45.2531 31.7962 46.7569 32.2463C47.7337 32.5481 48.6319 33.2906 49.1981 34.4925C51.7856 32.8031 51.7856 32.8031 53.5837 31.68C52.9106 30.6356 52.5788 30.1762 52.1194 29.7375C50.5463 27.9694 48.4481 27.0712 45.0394 27.15L43.2712 27.375C41.5819 27.7856 39.9713 28.6838 38.9944 29.8856C36.1519 33.1087 36.9731 38.7337 40.4194 41.0681C43.8281 43.6162 48.8175 44.1731 49.4625 46.5769C50.0588 49.5075 47.2856 50.445 44.5406 50.1019C42.5194 49.6519 41.3963 48.6375 40.155 46.7625L35.5838 49.3894C36.1012 50.5912 36.7069 51.1087 37.605 52.1625C41.9512 56.5481 52.83 56.3231 54.7819 49.6519C54.8494 49.4269 55.3781 47.8838 54.9675 45.5306L55.0875 45.6938ZM32.6269 27.5775H27.0112C27.0112 32.4206 26.9813 37.2356 26.9813 42.09C26.9813 45.1669 27.1369 47.9981 26.64 48.8681C25.8094 50.5875 23.6906 50.3719 22.7231 50.07C21.7369 49.5825 21.2288 48.9075 20.6531 47.9306C20.4862 47.6662 20.37 47.4431 20.3306 47.4431L15.7706 50.2556C16.5319 51.8288 17.6456 53.1862 19.0819 54.045C21.2213 55.3237 24.0919 55.7344 27.0994 55.0612C29.0531 54.495 30.7425 53.3325 31.62 51.5363C32.8988 49.2113 32.625 46.3612 32.6156 43.1662C32.6456 38.0287 32.6156 32.8931 32.6156 27.7162L32.6269 27.5775Z" fill="#121311"/>
</svg>
