<svg width="60" height="61" viewBox="0 0 60 61" fill="none" xmlns="http://www.w3.org/2000/svg">
<path d="M44.528 56.6346C44.3049 56.7527 44.3236 56.7902 44.5374 56.6814C44.6067 56.6533 44.6649 56.6139 44.7155 56.5671C44.7155 56.5277 44.7155 56.5277 44.528 56.6346ZM44.978 56.3908C44.8711 56.4789 44.8711 56.4789 44.9986 56.4208C45.0661 56.3814 45.1261 56.3439 45.1261 56.3327C45.1261 56.2821 45.0961 56.2933 44.978 56.3908ZM45.2705 56.2146C45.1636 56.3027 45.1636 56.3027 45.2911 56.2446C45.3605 56.2052 45.4186 56.164 45.4186 56.1546C45.4186 56.1077 45.3886 56.1171 45.2705 56.2146ZM45.5667 56.0402C45.4598 56.1283 45.4598 56.1283 45.5836 56.0683C45.653 56.0308 45.7111 55.9915 45.7111 55.9802C45.7111 55.9333 45.6811 55.9427 45.5667 56.0402ZM45.9661 55.7758C45.7617 55.9127 45.6904 56.0008 45.8779 55.9033C46.0036 55.8265 46.2173 55.6577 46.1798 55.6577C46.0992 55.6877 46.0317 55.7383 45.9642 55.7758H45.9661ZM28.036 0.39757C27.8991 0.406945 27.4885 0.444443 27.1285 0.474443C18.6013 1.24692 10.6234 5.83677 5.5667 12.9072C2.77116 16.7827 0.95622 21.2844 0.271867 26.0111C0.0299991 27.6611 0 28.1486 0 30.3854C0 32.6203 0.0299991 33.1003 0.271867 34.7502C1.90494 46.0205 9.92219 55.4815 20.7894 58.9876C22.7449 59.612 24.7942 60.0432 27.1285 60.3076C28.036 60.4051 31.9603 60.4051 32.8677 60.3076C36.9026 59.8576 40.3094 58.862 43.6805 57.1427C44.198 56.8802 44.2955 56.8108 44.2261 56.7527C42.5762 54.5759 40.9562 52.3972 39.3344 50.1998L34.5402 43.7256L28.5347 34.829C26.5323 31.8516 24.5224 28.8817 22.4805 25.9343C22.4599 25.9343 22.4337 29.8885 22.4224 34.7109C22.4018 43.1575 22.4018 43.5006 22.2949 43.6956C22.1881 43.93 22.0118 44.125 21.7774 44.2337C21.5918 44.3218 21.425 44.3406 20.5381 44.3406H19.5238L19.2594 44.1756C19.0944 44.0687 18.9575 43.9206 18.8694 43.7462L18.7419 43.4818L18.7513 31.7241L18.7719 19.9663L18.9575 19.732C19.0757 19.5876 19.2219 19.4695 19.3869 19.3814C19.6325 19.2632 19.73 19.2445 20.7444 19.2445C21.9349 19.2445 22.1318 19.2914 22.4449 19.6345C24.8748 23.2569 27.2973 26.8886 29.6803 30.5316C33.5783 36.4414 38.8994 44.5056 41.515 48.4617L46.2717 55.6596L46.5061 55.504C48.7916 53.9796 50.8709 52.1647 52.6652 50.0948C56.4451 45.7674 58.8975 40.4444 59.7281 34.7634C59.97 33.1134 60 32.6241 60 30.3891C60 28.1523 59.97 27.6742 59.7281 26.0243C58.0951 14.754 50.0778 5.29304 39.2107 1.78503C37.1782 1.14192 35.0877 0.703185 32.9708 0.478192C32.4027 0.420069 28.5254 0.350696 28.0379 0.40132L28.036 0.39757ZM40.3112 18.5414C40.5944 18.6764 40.8081 18.9314 40.9056 19.2239C40.9562 19.3814 40.9656 22.6419 40.9562 29.986L40.9356 40.5307L39.0813 37.6808L37.2157 34.829V27.1736C37.2157 22.2106 37.2363 19.4282 37.2626 19.2914C37.3507 18.9782 37.5645 18.7157 37.8494 18.5508C38.0819 18.4326 38.1719 18.4233 39.1 18.4233C39.9681 18.4233 40.1162 18.4326 40.3112 18.5414Z" fill="#121311"/>
</svg>
