<svg width="60" height="90" viewBox="0 0 60 90" fill="none" xmlns="http://www.w3.org/2000/svg">
<path d="M30.0014 44.9993C30.0014 25.0068 60 25.0068 60 44.9993C60 64.9918 30.0014 64.9918 30.0014 44.9993ZM0.00281342 74.9979C0.00281342 66.7073 6.7101 60 15.0007 60H29.9986V74.9979C29.9986 94.9904 0 94.9904 0 74.9979H0.00281342ZM30.0014 0.00281228V30.0014H44.9993C64.9918 30.0014 64.9918 0.00281228 44.9993 0.00281228H30.0014ZM0.00281342 15.0007C0.00281342 23.2913 6.7101 29.9986 15.0007 29.9986H29.9986V0H15.0007C6.7101 0 0.00281342 6.70729 0.00281342 14.9979V15.0007ZM0.00281342 44.9993C0.00281342 53.2899 6.7101 60 15.0007 60H29.9986V29.9986H15.0007C6.7101 29.9986 0.00281342 36.7087 0.00281342 44.9993Z" fill="#121311"/>
</svg>
