<svg width="60" height="60" viewBox="0 0 60 60" fill="none" xmlns="http://www.w3.org/2000/svg">
<path d="M30.0019 0.838789C13.4277 0.838789 0 14.2778 0 30.8407C0 44.1034 8.59554 55.3447 20.5082 59.3106C22.0139 59.5937 22.5577 58.6655 22.5577 57.863C22.5577 57.1504 22.5408 55.2659 22.5295 52.7645C14.1796 54.5721 12.4208 48.7312 12.4208 48.7312C11.0538 45.2734 9.08119 44.3453 9.08119 44.3453C6.36602 42.4908 9.29683 42.5301 9.29683 42.5301C12.3045 42.7345 13.8871 45.6147 13.8871 45.6147C16.5629 50.205 20.9076 48.8774 22.627 48.1049C22.8896 46.1716 23.6715 44.8422 24.5228 44.1015C17.8624 43.3496 10.8588 40.7713 10.8588 29.2749C10.8588 25.9916 12.0214 23.3177 13.9434 21.2176C13.6115 20.4656 12.5952 17.4092 14.2078 13.2764C14.2078 13.2764 16.7185 12.4758 22.4583 16.3535C24.8603 15.6878 27.4105 15.3559 29.9587 15.3391C32.5089 15.3559 35.0572 15.6897 37.4592 16.3535C43.1652 12.4758 45.6741 13.2764 45.6741 13.2764C47.2848 17.4092 46.2685 20.4638 45.976 21.2176C47.8792 23.3177 49.0418 25.9935 49.0418 29.2749C49.0418 40.7975 42.0289 43.3383 35.361 44.0715C36.4035 44.9697 37.3805 46.8167 37.3805 49.62C37.3805 53.6327 37.343 56.8654 37.343 57.8424C37.343 58.6224 37.868 59.56 39.4131 59.2581C51.4138 55.3335 60 44.0827 60 30.8388C60 14.2759 46.5723 0.836914 29.9981 0.836914L30.0019 0.838789Z" fill="#121311"/>
</svg>
