<svg width="60" height="66" viewBox="0 0 60 66" fill="none" xmlns="http://www.w3.org/2000/svg">
<path d="M58.1853 32.5C58.1853 28.6128 55.5539 25.2081 51.7843 24.2204L60 0H19.2925L27.533 24.307C23.8788 25.3711 21.365 28.7097 21.3546 32.5124C21.3546 35.3809 22.7837 37.9256 24.9655 39.4929C24.0974 40.7282 23.0951 41.8685 21.9898 42.9079C19.9606 44.8443 17.5747 46.3785 14.9763 47.4426C12.677 45.8939 11.6912 43.1553 12.5821 40.7199C21.9259 37.8081 19.8637 24.0389 10.091 23.9976C5.36446 24.0059 1.53086 27.8312 1.53086 32.5578C1.53086 34.8901 2.47328 37.0265 4.01167 38.5608C3.87144 38.8186 3.74152 39.099 3.6013 39.3774C2.3248 42.0191 0.873025 44.9948 0.316234 48.3356C-0.789097 55.0273 1.02563 60.3973 5.40777 63.4369C7.76897 65.1032 10.6045 66.0044 13.506 65.994C18.5212 65.994 23.6251 63.4699 28.5537 61.0201C32.076 59.2899 35.7054 57.4752 39.2709 56.5967C40.5928 56.275 41.9683 56.0832 43.418 55.8646C46.3607 55.446 49.4004 55.0067 52.1286 53.4168C55.2858 51.6124 57.4883 48.4985 58.1317 44.9206C58.6039 42.1923 58.1317 39.4434 56.9088 37.0265C57.7357 35.7047 58.1873 34.1704 58.1873 32.5042L58.1853 32.5ZM54.4589 32.5C54.4589 35.1541 52.2977 37.3111 49.6478 37.3111C45.0925 37.3008 43.0963 31.5556 46.67 28.718L46.6803 28.6994C46.8433 28.5819 47.0165 28.4623 47.1753 28.353C47.1753 28.353 47.2083 28.353 47.2083 28.3344C47.2825 28.2911 47.3567 28.2375 47.433 28.1942C47.4557 28.1942 47.466 28.1839 47.4846 28.1839C47.5609 28.1406 47.6578 28.1096 47.7547 28.0663C47.8517 28.023 47.9465 27.9921 48.0249 27.9488C48.0434 27.9488 48.0558 27.9385 48.0764 27.9385C48.1527 27.9158 48.2394 27.8746 48.3136 27.8642C48.3239 27.8642 48.3693 27.8416 48.3899 27.8416C48.4868 27.8189 48.5611 27.7983 48.6559 27.7859H48.6662L48.957 27.722C48.9756 27.722 49.0086 27.722 49.0312 27.6993C49.1055 27.6993 49.1818 27.6766 49.2684 27.6766H49.3529C49.4499 27.6766 49.5447 27.6663 49.6643 27.6663H49.9118C49.9881 27.6663 50.052 27.6663 50.1263 27.6766H50.1593C50.3098 27.6993 50.4706 27.7199 50.6212 27.7653C52.8545 28.2375 54.4568 30.2131 54.4568 32.5H54.4589ZM24.6212 3.82535H54.6734L47.7774 24.1667C47.4867 24.2224 47.2083 24.3173 46.9175 24.4142L39.6586 9.61391L32.375 24.3193C32.0966 24.2307 31.7831 24.1688 31.4738 24.1152L24.6212 3.82535ZM38.2831 30.8359C37.9284 29.0727 37.0273 27.4621 35.7033 26.2496L39.6565 18.271L43.651 26.4207C42.457 27.6023 41.5991 29.1181 41.2568 30.8359H38.2831ZM28.7125 27.8168C28.7971 27.7941 28.8857 27.7756 28.9827 27.7653H29.0342C29.1105 27.7426 29.1848 27.7426 29.259 27.722H29.3353C29.4095 27.722 29.4755 27.6993 29.5498 27.6993H30.2901C30.3664 27.6993 30.4303 27.722 30.486 27.722C30.5273 27.722 30.5376 27.722 30.5829 27.7446C30.6572 27.7673 30.7128 27.7673 30.7871 27.7776C30.8098 27.7776 30.8304 27.7776 30.8716 27.7962L31.1294 27.8519H31.1521C31.2263 27.8746 31.315 27.8952 31.3892 27.9364C31.3996 27.9364 31.4222 27.9467 31.4635 27.9467C31.5192 27.9694 31.5934 27.99 31.6594 28.021C31.6676 28.021 31.6903 28.0437 31.7109 28.0437C31.7852 28.087 31.8615 28.1096 31.9357 28.1406H31.9584C32.043 28.1736 32.1296 28.2169 32.2059 28.2808H32.2286C32.3028 28.3138 32.377 28.3654 32.4533 28.4107C32.4719 28.4107 32.4719 28.4334 32.4946 28.4334C32.5709 28.4664 32.6245 28.5303 32.6987 28.5633L32.7214 28.586C32.9462 28.7572 33.1607 28.949 33.3793 29.1449L33.3875 29.1552C34.2474 30.0563 34.7217 31.2483 34.7094 32.4815C34.5052 38.6907 25.2893 38.6907 25.0851 32.4815C25.0748 30.2811 26.5782 28.3571 28.7146 27.8209L28.7125 27.8168ZM9.9054 27.6766C12.5594 27.6766 14.7165 29.846 14.7165 32.5C14.7165 35.1541 12.5574 37.3111 9.9054 37.3111C7.25549 37.3111 5.09432 35.152 5.09432 32.5C5.09432 29.8481 7.25549 27.6766 9.9054 27.6766ZM54.3496 44.2524C53.9104 46.7209 52.3864 48.8697 50.2067 50.1173C48.1218 51.3195 45.5544 51.7072 42.8715 52.0805C41.3558 52.2764 39.8421 52.5424 38.3594 52.8868C34.3856 53.8663 30.5623 55.7656 26.8545 57.603C22.1197 59.956 17.651 62.1666 13.506 62.1666C11.3799 62.1769 9.30736 61.5232 7.57719 60.2777C3.37652 57.3762 3.58274 51.932 4.08591 48.946C4.53753 46.1517 5.81608 43.543 7.03896 41.0416C7.12763 40.8911 7.17919 40.7508 7.25549 40.6024C7.67411 40.7508 8.11336 40.8684 8.57529 40.9467C7.84321 44.9948 9.9054 49.1852 13.9225 51.2474L14.6422 51.6206L15.4259 51.3422C18.7666 50.1482 21.8702 48.2263 24.5985 45.6506C26.1142 44.2421 27.4443 42.6542 28.5723 40.9241C29.0157 40.9983 29.4549 41.021 29.8942 41.021C33.7814 41.0107 37.1757 38.3896 38.1656 34.62H41.3764C42.3518 38.3896 45.7565 41.021 49.6478 41.021C51.2378 41.021 52.7081 40.5817 53.964 39.8394C54.4589 41.2684 54.6177 42.7594 54.3496 44.2524Z" fill="#121311"/>
</svg>
