<svg width="60" height="61" viewBox="0 0 60 61" fill="none" xmlns="http://www.w3.org/2000/svg">
<path d="M50.3906 0.591914C57.9712 1.91004 60.1275 7.08691 59.9606 12.5169L60 12.4363L56.5931 57.1644L12.2662 60.2019C8.58562 60.0444 0.37125 59.7125 0.001875 48.2394L4.11375 40.7394L11.1637 57.2038L12.4237 60.1307L19.4344 37.2707L19.3575 37.2913L19.3969 37.2107L42.5325 44.6057L39.045 31.0213L36.5756 21.2732L58.6162 19.8482L57.0844 18.5788L41.2537 5.66941L50.4038 0.571289L50.3906 0.591914ZM0 48.1119V48.17V48.1025V48.1119ZM12.8231 13.0719C21.7275 4.23504 33.2138 -0.981211 37.6275 3.47191C42.03 7.91754 37.3631 18.7363 28.4475 27.5544C19.5394 36.3913 8.19187 41.8925 3.78937 37.4469C-0.62625 33.0144 3.89625 21.9088 12.8212 13.0719H12.8231Z" fill="#121311"/>
</svg>
