<svg width="36" height="36" viewBox="0 0 36 36" fill="none" xmlns="http://www.w3.org/2000/svg">
<path d="M17.9989 0.00112491C8.05561 0.00112491 0 8.06349 0 18C0 25.9566 5.15667 32.7005 12.3033 35.0798C13.2067 35.2496 13.5329 34.6928 13.5329 34.2113C13.5329 33.7838 13.5228 32.6533 13.516 31.1526C8.50671 32.2371 7.45152 28.7329 7.45152 28.7329C6.63145 26.6585 5.44803 26.1017 5.44803 26.1017C3.81913 24.9892 5.57739 25.0128 5.57739 25.0128C7.38178 25.1354 8.33122 26.8633 8.33122 26.8633C9.93649 29.6171 12.543 28.8207 13.5745 28.3572C13.732 27.1974 14.2011 26.3998 14.7118 25.9555C10.7161 25.5044 6.51446 23.9576 6.51446 17.0607C6.51446 15.0909 7.21192 13.4868 8.36497 12.2268C8.16585 11.7757 7.55614 9.94212 8.52358 7.46277C8.52358 7.46277 10.0299 6.98243 13.4733 9.30878C14.9143 8.90943 16.4442 8.71032 17.973 8.70019C19.5029 8.71032 21.0317 8.91056 22.4727 9.30878C25.8958 6.98243 27.401 7.46277 27.401 7.46277C28.3673 9.94212 27.7576 11.7746 27.5821 12.2268C28.7239 13.4868 29.4214 15.092 29.4214 17.0607C29.4214 23.9733 25.2141 25.4976 21.2139 25.9375C21.8394 26.4763 22.4254 27.5844 22.4254 29.2661C22.4254 31.6735 22.4029 33.6129 22.4029 34.1989C22.4029 34.6669 22.7179 35.2294 23.6449 35.0483C30.8444 32.6938 35.9955 25.9442 35.9955 17.9989C35.9955 8.06236 27.9398 0 17.9966 0L17.9989 0.00112491Z" fill="current"/>
</svg>
