<svg width="37" height="37" viewBox="0 0 37 37" fill="none" xmlns="http://www.w3.org/2000/svg">
<path d="M31.6624 30.7091H26.3327V22.3458C26.3327 20.3515 26.2911 17.7886 23.5457 17.7886C20.7665 17.7886 20.3431 19.9517 20.3431 22.1983V30.708H15.0067V13.5117H20.1326V15.8573H20.2013C20.9174 14.5027 22.6595 13.0782 25.2584 13.0782C30.6647 13.0782 31.668 16.6377 31.668 21.2659V30.708L31.6624 30.7091ZM8.9777 11.1616C7.25819 11.1616 5.87988 9.77093 5.87988 8.05817C5.87988 6.35105 7.26382 4.9626 8.9777 4.9626C10.6916 4.9626 12.08 6.35105 12.08 8.05817C12.08 9.77093 10.6916 11.1616 8.9777 11.1616ZM11.651 30.7091H6.30328V13.5129H11.651V30.7091ZM34.338 0H3.62323C2.15596 0 0.965698 1.16098 0.965698 2.59785V33.4376C0.965698 34.8744 2.15596 36.0354 3.62323 36.0354H34.3323C35.7974 36.0354 37 34.8744 37 33.4376V2.59785C37 1.16098 35.7974 0 34.3323 0L34.338 0Z" fill="current"/>
</svg>
