<svg width="60" height="54" viewBox="0 0 60 54" fill="none" xmlns="http://www.w3.org/2000/svg">
<path d="M30 21.3419C27.0506 21.3419 24.6488 23.7438 24.6488 26.6932C24.6488 29.6426 27.0506 32.0444 30 32.0444C32.9494 32.0444 35.3512 29.6426 35.3512 26.6932C35.3512 23.7438 32.9494 21.3419 30 21.3419ZM15.0188 37.3282L13.8375 37.0357C5.0475 34.8082 0 31.0394 0 26.6838C0 22.3282 5.04938 18.5594 13.8375 16.3319L15.0188 16.0394L15.3506 17.2113C16.2394 20.2769 17.3813 23.2657 18.7594 26.1569L19.0125 26.6838L18.7594 27.2201C17.3831 30.1001 16.2394 33.0888 15.3506 36.1657L15.0188 37.3282ZM13.2919 19.0657C6.61125 20.9407 2.51062 23.8207 2.51062 26.6838C2.51062 29.5469 6.61313 32.4157 13.2919 34.3019C14.1131 31.6938 15.0994 29.1551 16.2506 26.6838C15.0975 24.2126 14.1113 21.6738 13.2919 19.0657ZM44.9813 37.3282L44.6494 36.1563C43.7606 33.0907 42.6188 30.1019 41.2406 27.2201L40.9875 26.6838L41.2406 26.1476C42.6169 23.2676 43.7606 20.2788 44.6494 17.2019L44.9813 16.0394L46.1625 16.3319C54.9525 18.5594 60 22.3282 60 26.6838C60 31.0394 54.9506 34.8082 46.1625 37.0357L44.9813 37.3282ZM43.7494 26.6838C44.9513 29.2807 45.9469 31.8307 46.7081 34.3019C53.3981 32.4176 57.4894 29.5469 57.4894 26.6838C57.4894 23.8207 53.3869 20.9519 46.7081 19.0657C45.8869 21.6626 44.9006 24.2126 43.7494 26.6838ZM13.2712 19.0563L12.9394 17.8844C10.4681 9.17318 11.22 2.9238 15 0.745054C18.7106 -1.39432 24.6581 1.13505 30.8981 7.54193L31.7475 8.41193L30.8981 9.28193C28.6819 11.5863 26.6606 14.0669 24.8438 16.7032L24.5025 17.1813L23.9156 17.2301C20.7225 17.4832 17.5575 17.9913 14.4525 18.7544L13.2712 19.0563ZM18.0169 2.48505C17.3438 2.48505 16.7475 2.62193 16.2488 2.91443C13.7681 4.35068 13.3294 9.33068 15.0375 16.0488C17.7038 15.4526 20.3981 15.0326 23.1244 14.7888C24.6863 12.5613 26.4056 10.4332 28.2506 8.43068C24.3544 4.63193 20.6625 2.48505 18.0169 2.48505ZM41.9925 53.3819C41.9831 53.3819 41.9831 53.3819 41.9925 53.3819C38.4281 53.3819 33.8475 50.7063 29.1019 45.8238L28.2525 44.9538L29.1019 44.0838C31.3181 41.7794 33.3394 39.2988 35.1562 36.6626L35.4881 36.1844L36.075 36.1263C39.2681 35.8826 42.4331 35.3744 45.5475 34.6019L46.7288 34.3094L47.0606 35.4813C49.5319 44.1926 48.78 50.4326 45 52.6094C44.0812 53.1363 43.0462 53.4026 41.9925 53.3819ZM31.7475 44.9351C35.6437 48.7338 39.3356 50.8826 41.9812 50.8826H41.9906C42.6544 50.8826 43.2506 50.7363 43.7494 50.4532C46.23 49.0169 46.68 44.0369 44.9606 37.3188C42.2944 37.9151 39.5887 38.3351 36.8737 38.5694C35.3119 40.8063 33.5925 42.9232 31.7475 44.9351ZM46.7288 19.0563L45.5475 18.7544C42.4331 17.9932 39.2681 17.4851 36.075 17.2301L35.4881 17.1813L35.1562 16.7032C33.3394 14.0669 31.3181 11.5863 29.1019 9.28193L28.2525 8.41193L29.1019 7.54193C35.3419 1.13505 41.2894 -1.39432 45 0.745054C48.78 2.92193 49.5319 9.17318 47.0606 17.8844L46.7288 19.0563ZM36.8756 14.7888C39.7275 15.0532 42.4425 15.4732 44.9625 16.0488C46.6819 9.33068 46.2319 4.3488 43.7513 2.91443C41.28 1.48943 36.6319 3.67568 31.7494 8.43256C33.5944 10.4444 35.3044 12.5632 36.8756 14.7907V14.7888ZM18.0169 53.3819C16.9613 53.4007 15.9169 53.1382 15 52.6113C11.22 50.4344 10.4681 44.1926 12.9394 35.4832L13.2712 34.3113L14.4525 34.6038C17.3438 35.3369 20.5275 35.8432 23.9156 36.1282L24.5025 36.1863L24.8344 36.6644C26.6512 39.3007 28.6725 41.7813 30.8888 44.0857L31.7381 44.9557L30.8888 45.8257C26.1525 50.7082 21.5719 53.3838 18.0169 53.3838V53.3819ZM15.0394 37.3188C13.32 44.0369 13.77 49.0188 16.2506 50.4532C18.7219 51.8594 23.3606 49.6919 28.2525 44.9351C26.4075 42.9232 24.6881 40.8044 23.1262 38.5676C20.4019 38.3332 17.7056 37.9151 15.0394 37.3188ZM30 38.8901C27.9394 38.8901 25.83 38.8019 23.7113 38.6257L23.1244 38.5769L22.7831 38.0894C21.5925 36.3701 20.4581 34.6038 19.4137 32.7869C18.3581 30.9701 17.3925 29.1157 16.4944 27.2201L16.2412 26.6838L16.4944 26.1476C17.3925 24.2538 18.36 22.3976 19.4137 20.5807C20.4487 18.7938 21.5812 17.0069 22.7831 15.2782L23.1244 14.7907L23.7113 14.7419C27.9 14.3894 32.1094 14.3894 36.2887 14.7419L36.8756 14.7907L37.2169 15.2782C39.6094 18.7151 41.7188 22.3582 43.5056 26.1476L43.7587 26.6838L43.5056 27.2201C41.7188 31.0094 39.6188 34.6526 37.2169 38.0894L36.8756 38.5769L36.2887 38.6257C34.1794 38.8019 32.0606 38.8901 30 38.8901ZM24.5119 36.1751C28.2038 36.4582 31.7962 36.4582 35.4975 36.1751C37.5581 33.1582 39.3937 29.9838 40.9856 26.6819C39.4031 23.3819 37.5675 20.2076 35.4881 17.1888C31.8356 16.9057 28.1644 16.9057 24.5119 17.1888C22.4325 20.2057 20.595 23.3801 19.0144 26.6819C20.6062 29.9819 22.4419 33.1563 24.5119 36.1751Z" fill="#121311"/>
</svg>
