<svg width="60" height="61" viewBox="0 0 60 61" fill="none" xmlns="http://www.w3.org/2000/svg">
<g clip-path="url(#clip0_31_2)">
<path d="M40.8487 1.59062L40.5469 8.36875C40.5375 8.74937 40.9763 8.98375 41.28 8.74937L43.9256 6.74687L46.1719 8.49437C46.4644 8.68937 46.8563 8.49437 46.875 8.14187L46.6219 1.2475L49.9519 0.99437C51.6806 0.876245 53.1544 2.25437 53.1544 3.9925V57.9962C53.1544 59.7156 51.7181 61.0825 50.0006 60.9944L9.74625 59.1981C8.18438 59.1306 6.92438 57.8706 6.87563 56.2975L5.00063 6.79562C4.90313 5.13625 6.16313 3.70937 7.8225 3.62125L40.8206 1.54187L40.8487 1.59062ZM33.1744 24.2462C33.1744 25.4181 41.0756 24.8425 42.1481 24.0419C42.1481 16.0431 37.8506 11.815 30 11.815C22.1288 11.815 17.7544 16.1219 17.7544 22.5475C17.7544 33.67 32.7544 33.865 32.7544 39.94C32.7544 41.6987 31.9538 42.6944 30.1275 42.6944C27.7256 42.6944 26.7488 41.4737 26.8763 37.2944C26.8763 36.3962 17.7544 36.0925 17.4525 37.2944C16.7794 47.3725 23.0288 50.2919 30.1969 50.2919C37.1794 50.2919 42.6281 46.5719 42.6281 39.8425C42.6281 27.9194 27.375 28.24 27.375 22.3431C27.375 19.9206 29.1825 19.5981 30.1969 19.5981C31.3294 19.5981 33.3225 19.7744 33.1763 24.2669L33.1744 24.2462Z" fill="#121311"/>
</g>
<defs>
<clipPath id="clip0_31_2">
<rect width="60" height="60" fill="white" transform="translate(0 0.994141)"/>
</clipPath>
</defs>
</svg>
