<svg width="60" height="60" viewBox="0 0 60 60" fill="none" xmlns="http://www.w3.org/2000/svg">
<g clip-path="url(#clip0_31_4)">
<path d="M29.995 0C13.415 0 6.67618e-06 13.4175 6.67618e-06 30C-0.00262288 33.9404 0.771555 37.8427 2.27826 41.4836C3.78497 45.1246 5.99466 48.4328 8.78094 51.2191C11.5672 54.0053 14.8754 56.215 18.5164 57.7217C22.1573 59.2285 26.0596 60.0026 30 60C46.5825 60 60 46.5825 60 30C59.9975 13.4175 46.47 0 29.995 0ZM15.925 36.4375C16.905 37.745 18.215 38.2925 20.0675 38.2925C20.9425 38.2925 21.815 38.1825 22.5775 37.855C23.3425 37.53 24.215 37.09 25.3025 36.4375L28.36 40.8C25.8525 42.875 23.015 43.855 19.7425 43.855C17.1225 43.855 14.9425 43.31 12.98 42.22C11.0748 41.0961 9.55342 39.4231 8.61501 37.42C7.63501 35.345 7.08751 32.945 7.08751 30.1075C7.08751 27.3825 7.63501 24.8725 8.61251 22.8C9.54584 20.7353 11.0655 18.9905 12.9825 17.7825C14.835 16.5825 17.125 16.0375 19.635 16.0375C21.3825 16.0375 23.0175 16.255 24.3275 16.8C25.7972 17.3689 27.1611 18.1801 28.3625 19.2L25.3075 23.345C24.5319 22.7724 23.69 22.2956 22.8 21.925C22.0375 21.6 21.055 21.49 20.18 21.49C16.4725 21.49 14.6175 24.325 14.6175 30.105C14.51 33.055 15.055 35.125 15.9275 36.435L15.925 36.4375ZM45.925 43.2C44.835 46.5825 43.1975 49.0925 40.905 50.945C38.615 52.8025 35.56 53.7825 31.7425 54.11L30.98 48.985C33.4875 48.655 35.3425 48.11 36.5425 47.235C36.9775 46.91 37.8525 45.9275 37.8525 45.9275L28.7975 16.91H36.3225L41.56 38.6175L47.125 16.91H54.4325L45.925 43.2Z" fill="#121311"/>
</g>
<defs>
<clipPath id="clip0_31_4">
<rect width="60" height="60" fill="white"/>
</clipPath>
</defs>
</svg>
