<svg width="60" height="61" viewBox="0 0 60 61" fill="none" xmlns="http://www.w3.org/2000/svg">
<path d="M35.5922 1.01531L37.8365 1.50969L39.6518 2.16079L41.12 2.90704L42.2375 3.70552L43.0826 4.55064L43.7039 5.3939L44.1012 6.2129L44.3456 6.95915L44.452 7.60092L44.5023 8.1065L44.4725 8.42739V21.7106L44.3456 23.2758L44.0248 24.647L43.5005 25.7944L42.8587 26.7365L42.1125 27.5033L41.2972 28.1245L40.4223 28.6021L39.5473 28.951L38.732 29.2047L37.9858 29.3689L37.344 29.4752L36.8198 29.5256H21.962L20.2531 29.6506L18.7849 29.992L17.5405 30.5461L16.52 31.2159L15.6935 32.0143L15.0219 32.8781L14.5275 33.7829L14.1563 34.6952L13.9044 35.5683L13.7309 36.3668L13.632 37.0366L13.5854 37.5608V45.1706H8.0352L7.51283 45.0904L6.81136 44.9169L6.02593 44.6259L5.15096 44.1781L4.25733 43.5289L3.3637 42.6334L2.48873 41.4861L1.69211 40.0178L0.990641 38.2026L0.475732 36.0161L0.126862 33.4024L0 30.3427L0.147383 27.3111L0.544759 24.7273L1.14735 22.5613L1.94397 20.7927L2.83946 19.3748L3.8301 18.2853L4.88045 17.4588L5.91959 16.8674L6.91956 16.47L7.81506 16.2163L8.61167 16.0895L9.20307 16.0689H9.60045L9.75716 16.0895H30.0457V14.0298H15.5182L15.4977 7.18862L15.451 6.26514L15.5779 5.42002L15.8484 4.65325L16.2663 3.95178L16.8875 3.31188L17.6655 2.73727L18.6058 2.24288L19.7046 1.7858L20.9676 1.41828L22.4153 1.11791L23.9974 0.873518L25.766 0.718673L27.682 0.621661L29.7715 0.571289L32.9281 0.698151L35.5922 1.01531ZM19.9285 5.94052L19.3539 6.7558L19.1505 7.77629L19.3539 8.79865L19.9285 9.6419L20.7438 10.196L21.7642 10.4199L22.7847 10.196L23.6 9.6419L24.1746 8.79865L24.378 7.77629L24.1746 6.7558L23.6 5.94052L22.7847 5.39577L21.7642 5.17376L20.7438 5.39577L19.9285 5.94052ZM52.489 15.763L53.1775 15.9197L53.9741 16.2107L54.849 16.6585L55.7427 17.3282L56.6382 18.2032L57.5113 19.3692L58.3079 20.8337L59 22.6527L59.5243 24.8485L59.8731 27.4324L60 30.492L59.8452 33.5535L59.444 36.1373L58.8527 38.2735L58.056 40.0421L57.1605 41.4599L56.1606 42.5793L55.1214 43.3946L54.0711 43.9972L53.0804 44.3946L52.1849 44.6184L51.3883 44.7453L50.7969 44.7919L50.3996 44.7639H29.945V46.8031H44.4725L44.5023 53.6741L44.549 54.5677L44.4221 55.4129L44.1516 56.1796L43.7244 56.8979L43.1031 57.5191L42.3364 58.1236L41.3942 58.618L40.2954 59.0452L39.0324 59.4127L37.5847 59.7336L35.9933 59.9575L34.234 60.131L32.3087 60.228L30.2192 60.2579L27.0626 60.1608L24.4004 59.8101L22.1635 59.3157L20.3482 58.6945L18.88 57.9464L17.7625 57.1199L16.9174 56.2748L16.2961 55.4315L15.8988 54.6125L15.645 53.8663L15.548 53.245L15.4977 52.7469L15.5182 52.4279V39.1447L15.645 37.5496L15.9752 36.1989L16.4902 35.0627L17.1413 34.1094L17.8875 33.324L18.7065 32.7214L19.5796 32.2233L20.4453 31.8744L21.2717 31.6207L22.0198 31.477L22.6597 31.38L23.5049 31.2998H38.0324L39.7506 31.1748L41.2189 30.8334L42.4632 30.3092L43.4837 29.6096L44.3027 28.8111L44.9725 27.9473L45.4781 27.0425L45.8493 26.1488L46.1012 25.2832L46.2784 24.4866L46.3754 23.787L46.4221 23.2627V15.6529H51.6215L51.9723 15.6734L52.489 15.763ZM36.3869 51.2096L35.8123 52.0361L35.6183 53.0585L35.8123 54.0789L36.3869 54.8942L37.2134 55.467L38.2339 55.661L39.2544 55.467L40.0697 54.8942L40.6443 54.0789L40.8476 53.0585L40.6443 52.0361L40.0697 51.2096L39.2544 50.6369L38.2339 50.4429L37.2134 50.6369L36.3869 51.2096Z" fill="#121311"/>
</svg>
