<svg width="60" height="60" viewBox="0 0 60 60" fill="none" xmlns="http://www.w3.org/2000/svg">
<path d="M0 30V60H60V0H0V30ZM48.3487 27.6075C49.8731 27.9881 51.0338 28.6725 52.1081 29.775C52.6556 30.36 53.475 31.4344 53.5444 31.6987C53.5631 31.7775 50.9569 33.525 49.3744 34.5019C49.3162 34.5412 49.0819 34.2975 48.8269 33.915C48.0563 32.7919 47.2444 32.3044 46.005 32.2162C44.1881 32.0981 43.0163 33.0469 43.0256 34.6388C43.0163 35.0288 43.1044 35.4206 43.2788 35.7619C43.68 36.5925 44.4319 37.0894 46.755 38.0963C51.0525 39.9412 52.8881 41.1619 54.03 42.8906C55.3088 44.8237 55.5919 47.91 54.7331 50.2144C53.7769 52.7044 51.4125 54.4031 48.0919 54.96C47.0662 55.1456 44.625 55.1156 43.5206 54.9112C41.1094 54.4819 38.8237 53.2894 37.4175 51.7275C36.8606 51.1219 35.7862 49.53 35.8556 49.4231C35.8856 49.3837 36.1294 49.2281 36.4031 49.0706C36.6769 48.9131 37.6819 48.3281 38.6306 47.7806L40.3594 46.7756L40.7213 47.3119C41.2294 48.0825 42.3319 49.1381 42.9975 49.4887C44.9119 50.505 47.5388 50.3588 48.8381 49.1963C49.365 48.7575 49.6594 48.0825 49.62 47.4C49.62 46.7063 49.5319 46.395 49.17 45.8756C48.7013 45.2119 47.7544 44.6456 45.0487 43.4738C41.9531 42.135 40.6144 41.3156 39.405 39.9975C38.6438 39.1275 38.0775 38.1037 37.755 36.9994C37.53 36.15 37.4719 34.02 37.6481 33.1706C38.2838 30.1725 40.5488 28.0931 43.8 27.4781C44.8556 27.2738 47.3156 27.3506 48.3506 27.6056L48.3487 27.6075ZM34.2675 30.1181L34.2862 32.5688H26.4731V54.7669H20.9456V32.5688H13.1438V30.1669C13.1438 28.8281 13.1737 27.7162 13.2113 27.6862C13.2413 27.6469 17.9869 27.6281 23.7488 27.6375L34.2375 27.6675L34.2675 30.1181Z" fill="#121311"/>
</svg>
