<svg width="60" height="23" viewBox="0 0 60 23" fill="none" xmlns="http://www.w3.org/2000/svg">
<path d="M52.2332 19.4686V22.3701H57.1866C58.2032 22.3701 59.9419 21.588 60 19.3804V18.257C60 16.3814 58.5539 15.2673 57.1866 15.2673H54.7146V13.9187H59.608V10.9872H54.9097C53.698 10.9872 52.0775 12.0525 52.0775 14.0256V15.0422C52.0775 17.0153 53.6793 18.0319 54.9097 18.0319C58.3195 18.0506 54.0882 18.0319 57.2448 18.0319V19.448L52.2332 19.4686ZM25.673 18.7559C25.673 18.7559 28.3307 18.512 28.3307 14.8865C28.3307 11.2516 25.116 10.9103 25.116 10.9103H19.3223V22.3682H22.2332V19.6036L24.754 22.3682H29.0528L25.673 18.7559ZM24.5495 16.4114H22.2351V13.7931H24.5702C24.5702 13.7931 25.2248 14.0463 25.2248 15.0928C25.2248 16.1394 24.5514 16.4114 24.5514 16.4114H24.5495ZM35.5086 10.9909H32.5583C30.4483 10.9909 29.7355 13.0222 29.7355 13.9806V22.372H32.6952V20.3689H35.4692V22.372H38.3314V13.9806C38.3314 11.5386 36.2401 10.9909 35.5086 10.9909ZM35.4692 17.1147H32.6746V14.3407C32.6746 14.3407 32.6746 13.7049 33.603 13.7049H34.6196C35.4298 13.7049 35.4505 14.3407 35.4505 14.3407V17.1147H35.4692ZM39.6799 10.9909H42.7577V22.372H39.6799V10.9909ZM47.0753 19.4311V10.9909H44.0181V22.372H51.2185V19.4311H47.0753ZM1.06533 22.3701H13.0316C13.0316 22.3701 10.7452 11.3023 18.3264 6.80838C19.9769 5.95874 25.2323 2.77399 33.8487 9.52423C34.1132 9.28978 34.3757 9.09472 34.3757 9.09472C34.3757 9.09472 26.4927 0.75211 17.7205 1.68052C13.3054 2.10066 7.88309 6.36011 4.69834 11.9869C1.5136 17.6136 1.06346 22.3701 1.06346 22.3701H1.06533ZM1.06533 22.3701H13.0316C13.0316 22.3701 10.7452 11.3023 18.3264 6.80838C19.9769 5.95874 25.2323 2.77399 33.8487 9.52423C34.1132 9.28978 34.3757 9.09472 34.3757 9.09472C34.3757 9.09472 26.4927 0.75211 17.7205 1.68052C13.3054 2.10066 7.88309 6.36011 4.69834 11.9869C1.5136 17.6136 1.06346 22.3701 1.06346 22.3701H1.06533ZM1.06533 22.3701H13.0316C13.0316 22.3701 10.7452 11.3023 18.3264 6.80838C19.9769 5.95874 25.2323 2.77399 33.8487 9.52423C34.1132 9.28978 34.3757 9.09472 34.3757 9.09472C34.3757 9.09472 26.4927 0.75211 17.7205 1.68052C13.296 2.10066 7.86433 6.36011 4.67959 11.9869C1.50422 17.6136 1.06533 22.3701 1.06533 22.3701ZM26.005 2.58831L26.0725 1.50422C25.9356 1.42545 25.5549 1.23038 24.5983 0.947171L24.5402 2.00313C25.0391 2.17943 25.5267 2.37262 26.005 2.58831ZM24.5683 5.98875L24.5102 7.00531C25.0091 7.02407 25.5061 7.08409 26.005 7.20037L26.0725 6.20444C25.5549 6.08628 25.056 6.02813 24.5683 5.98875ZM18.9603 0.97718H19.1066L18.8046 0C18.3357 0 17.8575 0.0300092 17.3492 0.0881524L17.6418 1.0447C18.0807 0.995936 18.5214 0.97718 18.9603 0.97718ZM19.6843 6.89653L20.0369 8.00125C20.4758 7.77618 20.9165 7.58112 21.3554 7.4442L21.0234 6.37887C20.5058 6.53454 20.0669 6.71085 19.6843 6.89653ZM12.8065 2.66708L12.1219 1.55299C11.7412 1.76868 11.351 1.99187 10.9403 2.24695L11.6436 3.37043C12.0338 3.11722 12.4145 2.87152 12.8065 2.66708ZM15.9125 9.89559L16.6458 11.0585C16.899 10.6571 17.2029 10.2876 17.5349 9.91622L16.8503 8.82275C16.5089 9.16411 16.1863 9.52423 15.9125 9.89559ZM13.7162 15.0741L14.9465 16.1094C15.0047 15.4736 15.1135 14.849 15.2598 14.2244L14.1757 13.3054C13.9712 13.9018 13.8437 14.4964 13.7162 15.0741ZM7.08221 7.4442L5.99812 6.44826C5.608 6.84964 5.22726 7.24914 4.88403 7.65051L6.04689 8.71585C6.36949 8.27696 6.71085 7.84558 7.08221 7.44608V7.4442ZM2.50016 14.6239L0.761488 13.9506C0.468897 14.6446 0.155674 15.4455 0 15.8843L1.73867 16.5577C1.94311 16.01 2.25633 15.2185 2.50016 14.6239ZM13.4911 19.1572C13.5211 20.0069 13.598 20.7008 13.6674 21.1885L15.4942 21.8731C15.3573 21.2485 15.2204 20.5452 15.1229 19.7818L13.4911 19.1572Z" fill="#121311"/>
</svg>
