<svg width="60" height="62" viewBox="0 0 60 62" fill="none" xmlns="http://www.w3.org/2000/svg">
<path d="M43.1067 0C40.7007 0.0212578 38.316 0.363315 36.0008 1.03584L35.8404 1.08801C34.3891 0.834852 32.9107 0.69571 31.442 0.66479C28.4021 0.612611 25.7932 1.34697 23.6906 2.57606C21.617 1.86296 17.3191 0.612611 12.7892 0.865773C9.64114 1.03584 6.19738 1.99244 3.63871 4.69025C1.10323 7.37839 -0.24374 11.5449 0.0364769 17.2227C0.115711 18.7822 0.560192 21.3274 1.30422 24.6378C2.03858 27.9405 3.07634 31.8055 4.375 35.3382C5.67366 38.8612 7.0902 42.0306 9.30681 44.1834C10.4122 45.2598 11.9428 46.1778 13.7439 46.0985C15.0039 46.0464 16.1402 45.4936 17.1278 44.6781C17.609 45.312 18.1249 45.5825 18.5868 45.8357C19.182 46.1584 19.7444 46.3787 20.3396 46.5218C21.4064 46.7923 23.2287 47.146 25.3623 46.7826C26.087 46.6609 26.8522 46.4213 27.6175 46.0889C27.6484 46.9334 27.6794 47.7682 27.7083 48.6147C27.8185 51.2816 27.8919 53.7475 28.6843 55.9119C28.8157 56.2656 29.1693 58.0763 30.5569 59.6861C31.956 61.2959 34.6712 62.2931 37.7826 61.6283C39.9683 61.1645 42.755 60.32 44.6083 57.684C46.4403 55.0867 47.2655 51.3531 47.4279 45.2927C47.4665 44.9603 47.5187 44.6897 47.567 44.4269L47.9999 44.4675H48.0521C50.3866 44.568 52.924 44.2356 55.0478 43.2481C56.9185 42.3823 58.3389 41.5068 59.3748 39.9473C59.6279 39.5627 59.9178 39.0912 59.9912 38.2853C60.0705 37.4911 59.6067 36.231 58.8414 35.6493C57.3128 34.4821 56.3465 34.9247 55.3087 35.1469C54.2941 35.3691 53.2544 35.487 52.2186 35.5179C55.1966 30.5069 57.3301 25.1731 58.5496 20.4597C59.2743 17.671 59.6782 15.1046 59.7072 12.861C59.7477 10.6173 59.5583 8.63454 58.2172 6.91459C54.0101 1.54989 48.1004 0.0579758 43.5319 0.00966264C43.3908 0.00966264 43.2517 0.00966264 43.1087 0.00966264L43.1067 0ZM42.985 1.65231C47.3042 1.61173 52.8274 2.81956 56.7929 7.89051C57.6896 9.02877 57.9524 10.6888 57.9215 12.7431C57.8906 14.7974 57.5099 17.242 56.8142 19.9302C55.4768 25.1461 52.9278 31.2026 49.3565 36.6504C49.4783 36.7412 49.6174 36.8205 49.7585 36.8726C50.5025 37.1838 52.2031 37.4447 55.6044 36.7509C56.4605 36.5673 57.0866 36.4494 57.7398 36.9422C58.0626 37.2128 58.2326 37.6167 58.2114 38.0399C58.1727 38.351 58.0626 38.6525 57.8693 38.9057C57.2142 39.8893 55.9194 40.8285 54.2574 41.6035C52.7887 42.2857 50.6726 42.6393 48.8135 42.6606C47.8685 42.6702 47.0027 42.5987 46.2645 42.3668L46.2258 42.3591C45.9417 45.0859 45.2905 50.4815 44.8653 52.9358C44.5252 54.9167 43.93 56.4994 42.7937 57.6763C41.6554 58.8648 40.0553 59.5682 37.8908 60.0321C35.2143 60.606 33.2702 59.9915 32.014 58.9344C30.7579 57.8773 30.182 56.4685 29.8399 55.6124C29.6003 55.0191 29.4785 54.2538 29.3587 53.2257C29.237 52.1995 29.1577 50.9511 29.0959 49.5326C29.0167 47.3682 28.9858 45.2038 29.0167 43.0297C27.9016 44.0578 26.5121 44.7303 25.0202 44.9931C23.2403 45.2946 21.6595 44.9931 20.7145 44.7612C20.2507 44.6395 19.7966 44.4694 19.3753 44.2375C18.9327 44.0056 18.5192 43.7447 18.239 43.2191C18.0766 42.9176 18.0283 42.5678 18.0979 42.2354C18.1771 41.8933 18.3781 41.6015 18.6525 41.3793C19.1646 40.9638 19.841 40.7358 20.8556 40.5232C22.7089 40.1386 23.3621 39.8797 23.7544 39.5647C24.0868 39.3038 24.4714 38.7607 25.1323 37.9645C25.1323 37.9355 25.1323 37.8949 25.1226 37.864C23.9264 37.8254 22.7572 37.5142 21.7001 36.9383C21.3194 37.3403 19.3347 39.4352 16.9306 42.334C15.9238 43.5399 14.8068 44.2356 13.6202 44.2878C12.4433 44.3361 11.3727 43.7447 10.4683 42.8673C8.65749 41.1049 7.20616 38.0747 5.94808 34.6522C4.69001 31.2297 3.67349 27.4168 2.93913 24.1759C2.21444 20.9235 1.78155 18.3068 1.71971 17.0488C1.44916 11.6841 2.70723 8.07217 4.86007 5.78599C7.0129 3.49981 9.96387 2.64563 12.8433 2.47557C18.0071 2.18376 22.9176 3.98487 23.9051 4.36751C25.8164 3.06885 28.2823 2.26492 31.3628 2.31324C32.8237 2.33449 34.2712 2.52388 35.6916 2.87753L35.7438 2.84661C36.368 2.63597 37.0019 2.44465 37.6454 2.30551C39.3982 1.89001 41.1877 1.67937 42.9792 1.65038L42.985 1.65231ZM43.3773 3.37226H42.9966C41.5279 3.38965 40.0456 3.56358 38.6078 3.87472C41.8177 5.29513 44.2431 7.47695 45.9534 9.6723C47.1419 11.1816 48.1178 12.8417 48.8618 14.6138C49.1555 15.2998 49.3469 15.8719 49.4474 16.3144C49.5073 16.5366 49.5382 16.726 49.5575 16.9174C49.5575 17.0178 49.5672 17.1203 49.5169 17.2903C49.5169 17.3 49.5073 17.3213 49.5073 17.3309C49.5904 19.5862 49.0261 21.1129 48.9526 23.2676C48.9043 24.8291 49.3063 26.6612 49.4068 28.6633C49.4976 30.5436 49.2676 32.6075 48.0482 34.6406C48.1487 34.7623 48.2395 34.8821 48.34 35.0135C51.5712 29.9194 53.9057 24.2938 55.1445 19.4915C55.8092 16.9038 56.159 14.5597 56.1899 12.7102C56.2209 10.8569 55.8788 9.50804 55.4343 8.94567C51.9712 4.52598 47.2926 3.39738 43.3754 3.37033L43.3773 3.37226ZM31.0265 4.03512C27.9886 4.04478 25.8029 4.96273 24.1448 6.34062C22.4306 7.7707 21.2846 9.71289 20.5406 11.715C19.6439 14.0804 19.3328 16.3743 19.211 17.9358L19.2516 17.9145C20.1696 17.4024 21.3755 16.8787 22.6741 16.5869C23.9631 16.2835 25.3623 16.1927 26.6184 16.6874C27.8881 17.1686 28.9239 18.3262 29.3065 20.0674C31.1212 28.4623 28.7442 31.5833 27.8687 33.9371C27.5364 34.7932 27.2445 35.659 27.0126 36.5441C27.1228 36.5229 27.2349 36.4919 27.345 36.4823C27.9692 36.434 28.4504 36.6349 28.7345 36.7548C29.6216 37.1258 30.2245 37.8911 30.5569 38.7665C30.6361 38.9984 30.696 39.2381 30.7366 39.5009C30.7675 39.6014 30.7888 39.7115 30.7888 39.8236C30.6883 43.0335 30.696 46.2454 30.8178 49.4553C30.8796 50.8448 30.9705 52.0623 31.0806 53.0286C31.1908 53.9852 31.3415 54.7195 31.4439 54.9708C31.7744 55.796 32.2575 56.8724 33.1349 57.6067C34.0007 58.343 35.2471 58.8262 37.5333 58.343C39.5142 57.9101 40.7336 57.3246 41.5472 56.4801C42.3646 55.624 42.8458 54.4471 43.157 52.6459C43.6304 49.9385 44.5658 42.0866 44.6779 40.6179C44.6296 39.4989 44.788 38.6448 45.1513 37.9896C45.5127 37.3249 46.077 36.9132 46.5718 36.691C46.8114 36.5808 47.0433 36.5113 47.2346 36.4494C47.0336 36.1692 46.823 35.8871 46.6104 35.6146C45.907 34.7585 45.3214 33.8038 44.8885 32.7873C44.6875 32.3621 44.4653 31.9389 44.2237 31.5369C43.8836 30.9243 43.4507 30.1474 42.9966 29.272C42.0902 27.5405 41.1046 25.4282 40.5906 23.3739C40.0785 21.3197 40.0089 19.1977 41.3172 17.7078C42.4748 16.3782 44.5175 15.8274 47.5651 16.1385C47.4742 15.8661 47.4259 15.6342 47.2733 15.2824C46.5795 13.6514 45.6731 12.1208 44.5851 10.7313C41.9975 7.42091 37.8 4.13754 31.3299 4.02739L31.0265 4.03512ZM13.9178 4.16653C13.5951 4.16653 13.2627 4.17619 12.9419 4.19745C10.3349 4.35012 7.87868 5.10187 6.11621 6.96483C4.35568 8.83745 3.20003 11.887 3.44932 16.9502C3.5015 17.9165 3.91313 20.593 4.62623 23.7836C5.3432 26.9762 6.35778 30.7311 7.5772 34.0512C8.79276 37.3616 10.2653 40.2507 11.6742 41.6189C12.3776 42.2934 12.9902 42.5755 13.5448 42.5562C14.0995 42.5253 14.7739 42.2025 15.5991 41.217C17.0988 39.4062 18.6506 37.6534 20.2604 35.9431C17.9433 33.9197 16.807 30.8625 17.2611 27.8207C17.522 25.9191 17.5626 24.1353 17.522 22.7265C17.493 21.3583 17.4002 20.4539 17.4002 19.8799C17.4002 19.8587 17.4002 19.849 17.4002 19.8277V19.8181L17.3906 19.8007C17.3906 16.8304 17.9162 13.8929 18.9211 11.1043C19.6458 9.17951 20.7145 7.23925 22.3224 5.65651C20.7435 5.1328 17.9336 4.35012 14.8957 4.19745C14.573 4.17619 14.2386 4.16653 13.9178 4.16653ZM45.8625 17.7735C44.1136 17.8044 43.1357 18.2585 42.6139 18.8402C41.8873 19.677 41.8177 21.1457 42.2719 22.9584C42.7222 24.7692 43.6614 26.7926 44.5368 28.4758C44.9697 29.3203 45.3929 30.0759 45.733 30.6885C46.0867 31.3128 46.3379 31.7456 46.4887 32.1283C46.6297 32.4703 46.7921 32.7718 46.9525 33.054C47.6269 31.6239 47.7487 30.2247 47.6772 28.756C47.5863 26.9452 47.165 25.0919 47.2346 23.2213C47.3061 21.0259 47.739 19.5958 47.7699 17.9049C47.1438 17.8256 46.5003 17.7735 45.8664 17.7735H45.8625ZM24.6472 18.0788C24.1138 18.0788 23.5805 18.1484 23.0568 18.2701C22.019 18.5233 21.0237 18.904 20.0865 19.4277C19.7753 19.5978 19.4738 19.791 19.1917 20.0133L19.1299 20.0616C19.1511 20.4461 19.2207 21.3506 19.2516 22.6995C19.2825 24.1682 19.2516 26.0389 18.9714 28.0642C18.3472 32.4723 21.5474 36.117 25.3024 36.1267C25.5246 35.2203 25.884 34.3024 26.2474 33.338C27.2929 30.5185 29.3471 28.4661 27.6156 20.4346C27.3354 19.1262 26.7711 18.5929 25.9942 18.2914C25.5613 18.1387 25.111 18.0691 24.6472 18.0807V18.0788ZM45.0489 18.6006H45.1803C45.3407 18.6102 45.5031 18.6218 45.6422 18.6605C45.7736 18.6914 45.8954 18.732 45.9959 18.8016C46.0964 18.8615 46.1659 18.962 46.1872 19.0818V19.103C46.1872 19.2248 46.1563 19.3446 46.0964 19.4567C46.0171 19.5958 45.9263 19.7272 45.8161 19.8374C45.5533 20.1292 45.1997 20.3225 44.819 20.3804C44.446 20.4326 44.0749 20.3321 43.7619 20.1196C43.6401 20.0268 43.5203 19.9263 43.4295 19.8161C43.3386 19.7253 43.2884 19.6055 43.2671 19.4837C43.2594 19.3659 43.2884 19.2441 43.3676 19.1533C43.4604 19.0605 43.5609 18.9813 43.671 18.9214C43.9203 18.7803 44.2527 18.6798 44.6373 18.6276C44.7764 18.6102 44.9175 18.5987 45.0489 18.589V18.6006ZM24.8965 19.0335C25.0279 19.0335 25.1806 19.0431 25.3217 19.0625C25.7236 19.1243 26.0657 19.2248 26.3363 19.3852C26.4677 19.447 26.5894 19.5475 26.6783 19.6577C26.7788 19.7794 26.8271 19.9282 26.8194 20.0906C26.7885 20.2394 26.7266 20.3824 26.6261 20.4925C26.516 20.6239 26.3962 20.7341 26.2551 20.8249C25.9227 21.0665 25.5111 21.167 25.0975 21.1167C24.682 21.0472 24.3013 20.8462 24.0211 20.535C23.8993 20.4036 23.7988 20.2626 23.7177 20.1118C23.6268 19.9707 23.5882 19.8103 23.6075 19.648C23.6481 19.3775 23.88 19.2248 24.1023 19.1456C24.3554 19.0625 24.626 19.0354 24.8965 19.0451V19.0335ZM48.2395 37.9549H48.2299C47.8588 38.0959 47.5477 38.1481 47.2849 38.2699C47.0143 38.3703 46.7998 38.5713 46.6722 38.8206C46.5003 39.1144 46.3708 39.6381 46.4094 40.5309C46.5196 40.614 46.651 40.672 46.794 40.7145C47.2269 40.8459 47.9709 40.9367 48.7961 40.9252C50.4368 40.9039 52.4602 40.5232 53.5366 40.0188C54.412 39.6168 55.2372 39.0738 55.9619 38.4399C52.3693 39.1743 50.3479 38.983 49.0976 38.4708C48.7961 38.3394 48.5024 38.1674 48.2395 37.9549ZM27.546 38.1964H27.4938C27.3547 38.2061 27.1614 38.2583 26.7691 38.6815C25.8724 39.6864 25.5613 40.3203 24.827 40.9058C24.0829 41.4991 23.1263 41.8122 21.2035 42.2045C20.6005 42.3262 20.2469 42.4654 20.015 42.5755C20.0845 42.6374 20.0845 42.6586 20.1947 42.7069C20.4788 42.8693 20.8382 43.0007 21.132 43.0799C21.9571 43.2809 23.3041 43.5225 24.7245 43.2809C26.1333 43.0393 27.6021 42.363 28.8621 40.6044C29.0843 40.3029 29.1017 39.8487 28.922 39.3656C28.7423 38.8941 28.348 38.4708 28.0775 38.3607C27.9055 38.2776 27.7238 38.2293 27.5441 38.1984L27.546 38.1964Z" fill="#121311"/>
</svg>
